<svg height="512pt" viewBox="0 0 512 512" width="512pt" xmlns="http://www.w3.org/2000/svg" xmlns:xlink="http://www.w3.org/1999/xlink"><linearGradient id="a" gradientUnits="userSpaceOnUse" x1="0" x2="512" y1="256" y2="256"><stop offset="0" stop-color="#00f1ff"/><stop offset=".231" stop-color="#00d8ff"/><stop offset=".5138" stop-color="#00c0ff"/><stop offset=".7773" stop-color="#00b2ff"/><stop offset="1" stop-color="#00adff"/></linearGradient><path d="m512 256c0 141.386719-114.613281 256-256 256s-256-114.613281-256-256 114.613281-256 256-256 256 114.613281 256 256zm0 0" fill="url(#a)"/><g fill="#fff"><path d="m413.535156 377.535156h-315.070312c-8.285156 0-15 6.71875-15 15 0 8.285156 6.714844 15 15 15h315.070312c8.285156 0 15-6.714844 15-15s-6.714844-15-15-15zm0 0"/><path d="m98.476562 172.570312c2.277344 0 4.59375-.519531 6.765626-1.621093l151.398437-76.65625 150.074219 76.632812c7.375 3.769531 16.410156.84375 20.179687-6.535156 3.765625-7.378906.839844-16.414063-6.539062-20.179687l-156.867188-80.105469c-4.269531-2.179688-9.320312-2.1875-13.597656-.023438l-158.199219 80.101563c-7.394531 3.742187-10.351562 12.769531-6.609375 20.160156 2.644531 5.21875 7.917969 8.226562 13.394531 8.226562zm0 0"/><path d="m273.355469 257.382812h-20.691407c-8.285156 0-15 6.714844-15 15 0 8.28125 6.714844 15 15 15h20.691407c37.71875 0 68.402343-30.6875 68.402343-68.402343 0-37.71875-30.6875-68.402344-68.402343-68.402344h-74.09375c-8.285157 0-15 6.714844-15 15 0 .679687.058593 1.347656.148437 2-.089844.660156-.148437 1.324219-.148437 2.003906v169.550781c0 8.285157 6.714843 15 15 15 8.285156 0 15-6.714843 15-15v-158.554687h59.09375c21.175781 0 38.402343 17.226563 38.402343 38.402344s-17.226562 38.402343-38.402343 38.402343zm0 0"/></g></svg>